<svg width="27" height="26" viewBox="0 0 27 26" fill="none" xmlns="http://www.w3.org/2000/svg">
<path d="M25.3125 11.375H23.7889C24.1453 10.6427 24.3408 9.84739 24.3629 9.03892C24.385 8.23046 24.2334 7.42632 23.9175 6.67696C23.5407 5.73438 22.8962 4.9129 22.0575 4.30641C21.2188 3.69991 20.2198 3.33287 19.1747 3.24723C18.1185 3.16451 17.0567 3.31806 16.0723 3.69588C15.0879 4.07369 14.2076 4.66555 13.5 5.42522C12.7925 4.6651 11.9119 4.07295 10.9271 3.69511C9.94237 3.31726 8.88018 3.16397 7.82367 3.24723C6.77511 3.3339 5.77302 3.70293 4.93197 4.31213C4.09093 4.92134 3.44486 5.74613 3.06762 6.69223C2.68876 7.58602 2.54762 8.55676 2.657 9.51637C2.76639 10.476 3.12284 11.3941 3.69402 12.1875H1.6875C1.46372 12.1875 1.24911 12.2731 1.09088 12.4255C0.932645 12.5778 0.84375 12.7845 0.84375 13C0.84375 13.2155 0.932645 13.4221 1.09088 13.5745C1.24911 13.7269 1.46372 13.8125 1.6875 13.8125H5.08511L12.807 22.4949C12.886 22.5837 12.9839 22.6551 13.0941 22.7042C13.2043 22.7532 13.3242 22.7789 13.4456 22.7792H13.4481C13.5691 22.7792 13.6886 22.7542 13.7986 22.7058C13.9086 22.6574 14.0066 22.5868 14.0858 22.4988L22.6344 13H25.3125C25.5363 13 25.7509 12.9144 25.9091 12.762C26.0674 12.6096 26.1562 12.403 26.1562 12.1875C26.1562 11.972 26.0674 11.7653 25.9091 11.613C25.7509 11.4606 25.5363 11.375 25.3125 11.375ZM5.36077 11.6241C4.83611 11.0387 4.49026 10.3247 4.36164 9.56136C4.23302 8.79806 4.32667 8.01536 4.63219 7.30023C4.896 6.63356 5.3492 6.05177 5.94002 5.62131C6.53085 5.19086 7.23548 4.92909 7.97344 4.8659C8.1259 4.85282 8.28082 4.84607 8.4375 4.84607C9.31221 4.84172 10.1729 5.0579 10.9339 5.47311C11.695 5.88833 12.33 6.48813 12.7757 7.21288C12.8563 7.3263 12.9644 7.41908 13.0906 7.4832C13.2168 7.54731 13.3573 7.58082 13.5 7.58082C13.6427 7.58082 13.7832 7.54731 13.9094 7.4832C14.0356 7.41908 14.1437 7.3263 14.2243 7.21288C14.67 6.48813 15.305 5.88833 16.0661 5.47311C16.8271 5.0579 17.6878 4.84172 18.5625 4.84607C18.719 4.84607 18.8739 4.85282 19.0248 4.8659C19.7593 4.92796 20.4609 5.18773 21.0494 5.61552C21.6379 6.04331 22.0895 6.62187 22.3528 7.28512C22.6332 7.95366 22.7321 8.67996 22.6402 9.39551C22.5484 10.1111 22.2688 10.7923 21.8278 11.375H16.875C16.744 11.3749 16.6148 11.4043 16.4976 11.4607C16.3804 11.5171 16.2785 11.599 16.2 11.7L14.4878 13.8983L12.5671 10.1991C12.5011 10.0719 12.4014 9.96351 12.2782 9.88498C12.155 9.80645 12.0125 9.76049 11.8651 9.7517C11.7172 9.74035 11.5689 9.76785 11.436 9.83129C11.3031 9.89472 11.1905 9.9917 11.1103 10.1119L9.67342 12.1875H5.86187L5.36077 11.6241ZM13.4523 20.7215L7.30687 13.8125H10.125C10.2639 13.8125 10.4006 13.7795 10.5231 13.7163C10.6456 13.6532 10.75 13.562 10.827 13.4507L11.7079 12.178L13.5894 15.8009C13.6538 15.9248 13.75 16.0307 13.8688 16.1087C13.9876 16.1868 14.1252 16.2343 14.2684 16.2468C14.2937 16.2488 14.3194 16.25 14.3443 16.25C14.4753 16.2501 14.6046 16.2207 14.7217 16.1643C14.8389 16.1079 14.9408 16.026 15.0193 15.925L17.2969 13H20.4013L13.4523 20.7215Z" fill="black"/>
</svg>
