<svg width="31" height="31" viewBox="0 0 31 31" fill="none" xmlns="http://www.w3.org/2000/svg">
<g clip-path="url(#clip0_1_357)">
<path d="M0.000171661 18.9321V18.5868C0.000171661 17.0921 1.21626 15.876 2.71104 15.876C4.20582 15.876 5.4219 17.0921 5.4219 18.5868C5.4219 19.0524 5.33447 19.5058 5.16639 19.9299C5.05263 20.3482 5.11481 20.7852 5.34349 21.1638C5.40507 21.2658 5.47736 21.3594 5.55801 21.444C6.11099 20.0992 7.43454 19.1497 8.97625 19.1497C10.0875 19.1497 11.0849 19.6435 11.7628 20.4224C12.2496 19.8631 12.9009 19.4508 13.6413 19.263V17.3436H6.05044V15.5273C8.4177 15.5273 10.3436 13.6014 10.3436 11.2341C10.3436 8.86682 8.4177 6.94094 6.05044 6.94094V5.12472H13.6413V2.81165H12.5595V3.64998H9.63942V1.83369H10.7433V0.995361H15.4576V5.12472H17.1622C20.531 5.12472 23.2717 7.86543 23.2717 11.2342C23.2717 14.603 20.531 17.3437 17.1622 17.3437H15.4576V19.263C16.198 19.4508 16.8493 19.8632 17.3361 20.4225C18.014 19.6436 19.0114 19.1497 20.1226 19.1497C21.3657 19.1497 22.4665 19.7674 23.1365 20.7114C23.2172 20.3876 23.1984 20.0255 23.029 19.6628L22.631 18.8111C22.3948 18.3055 22.27 17.7434 22.27 17.1853C22.27 15.0675 23.993 13.3444 26.1108 13.3444H30.9979V18.2676H28.7888L30.1312 20.5625C31.2803 22.5267 31.2903 24.878 30.1581 26.8521C29.0259 28.8262 26.9912 30.0046 24.7156 30.0046H7.76301C6.58125 30.0046 5.44388 29.6772 4.4738 29.0577C3.56378 28.4767 2.8182 27.6542 2.31767 26.6793C1.81712 25.7044 1.58329 24.6192 1.64136 23.541C1.70329 22.3917 2.10006 21.2766 2.78872 20.3163L3.26171 19.6566C3.4867 19.3429 3.60568 18.9729 3.60568 18.5868C3.60568 18.0935 3.20437 17.6921 2.71104 17.6921C2.2177 17.6921 1.8164 18.0934 1.8164 18.5868V18.932H0.000171661V18.9321ZM14.0475 11.2342C14.0475 9.10313 12.4865 7.33056 10.448 6.99786C11.5073 8.09709 12.1599 9.59072 12.1599 11.2342C12.1599 12.8777 11.5073 14.3713 10.448 15.4705C12.4865 15.1378 14.0475 13.3653 14.0475 11.2342ZM14.1522 6.99786C15.2114 8.09709 15.8638 9.59078 15.8638 11.2342C15.8638 12.8776 15.2114 14.3713 14.1522 15.4705C16.1905 15.1377 17.7514 13.3651 17.7514 11.2342C17.7514 9.10319 16.1905 7.33068 14.1522 6.99786ZM21.4554 11.2342C21.4554 9.10319 19.8945 7.33068 17.8561 6.99786C18.9153 8.09703 19.5677 9.59078 19.5677 11.2342C19.5677 12.8776 18.9153 14.3713 17.8561 15.4705C19.8944 15.1377 21.4554 13.3652 21.4554 11.2342ZM8.97625 20.966C7.94047 20.966 7.09784 21.8087 7.09784 22.8445C7.09784 23.8803 7.94047 24.7229 8.97625 24.7229C10.012 24.7229 10.8547 23.8803 10.8547 22.8445C10.8547 21.8087 10.012 20.966 8.97625 20.966ZM14.5494 20.966C13.5136 20.966 12.6709 21.8087 12.6709 22.8445C12.6709 23.8803 13.5136 24.7229 14.5494 24.7229C15.5852 24.7229 16.4279 23.8803 16.4279 22.8445C16.4278 21.8087 15.5852 20.966 14.5494 20.966ZM20.1226 20.966C19.0868 20.966 18.2441 21.8087 18.2441 22.8445C18.2441 23.8803 19.0867 24.7229 20.1226 24.7229C21.1583 24.7229 22.001 23.8803 22.001 22.8445C22.001 21.8087 21.1583 20.966 20.1226 20.966ZM3.93336 25.8498C4.68523 27.3142 6.11686 28.1885 7.76295 28.1885H24.7156C26.3325 28.1885 27.7781 27.3511 28.5826 25.9485C29.3871 24.5459 29.3799 22.8754 28.5635 21.4796L26.6846 18.2676H25.6542V16.4513H29.1816V15.1607H26.1107C24.9943 15.1607 24.0861 16.0689 24.0861 17.1853C24.0861 17.4795 24.152 17.7758 24.2764 18.0423L24.6744 18.894C25.3306 20.2986 24.9542 21.9379 23.8153 22.9225C23.7734 24.9238 22.1336 26.5392 20.1226 26.5392C19.0113 26.5392 18.0139 26.0454 17.336 25.2665C16.6581 26.0454 15.6607 26.5392 14.5495 26.5392C13.4382 26.5392 12.4408 26.0454 11.7629 25.2665C11.085 26.0454 10.0876 26.5392 8.97637 26.5392C7.15046 26.5392 5.63061 25.2075 5.33471 23.4646C4.71586 23.1911 4.18432 22.7336 3.81832 22.1489C3.28968 23.3248 3.32068 24.6565 3.93336 25.8498Z" fill="#19191D"/>
</g>
<defs>
<clipPath id="clip0_1_357">
<rect width="31" height="31" fill="white" transform="matrix(-1 0 0 1 31 0)"/>
</clipPath>
</defs>
</svg>
